<?xml version="1.0" encoding="UTF-8" standalone="no"?> <svg xmlns="http://www.w3.org/2000/svg" xmlns:xlink="http://www.w3.org/1999/xlink" viewBox="0 0 64 64"><defs><style>.cls-1{fill:url(#linear-gradient);}.cls-2{fill:url(#linear-gradient-2);}</style><linearGradient id="linear-gradient" x1="7.98" y1="32" x2="56.03" y2="32" gradientUnits="userSpaceOnUse"><stop offset="0" stop-color="#fcd702"/><stop offset="0.18" stop-color="#f8b802"/><stop offset="0.57" stop-color="#f17901"/><stop offset="0.85" stop-color="#ec5101"/><stop offset="1" stop-color="#ea4201"/></linearGradient><linearGradient id="linear-gradient-2" x1="46.09" y1="60" x2="49.98" y2="60" xlink:href="#linear-gradient"/></defs><g id="Layer_31" data-name="Layer 31"><path class="cls-1" d="M54.77,4.26a4.35,4.35,0,0,0-6.11,0L23.33,29.6a22,22,0,0,1-3.62-6.85,1,1,0,0,0-1.18-.44,2.3,2.3,0,0,0-.37.23l-9.9,9.9a1,1,0,0,0-.19,1.12,1.12,1.12,0,0,0,.61.54C19,37.05,25.42,48.69,22.4,59H18.17a1,1,0,0,0,0,2H42.26a1,1,0,0,0,0-2h-9.6a23.34,23.34,0,0,0,14-21.88,1.06,1.06,0,0,0-.93-.66A20.83,20.83,0,0,1,30,35.12L54.77,10.37A4.33,4.33,0,0,0,54.77,4.26ZM39.41,39.41a22.47,22.47,0,0,0,5.24-.63A21.53,21.53,0,0,1,24.48,58.93,22.48,22.48,0,0,0,10.79,32.74l7.66-7.66a22.08,22.08,0,0,0,4,6.62.36.36,0,0,0,.14.16,22.61,22.61,0,0,0,16.81,7.55ZM53.35,9,28.23,34.08a20.33,20.33,0,0,1-3.58-3L50.08,5.68A2.31,2.31,0,0,1,53.35,9Z"/><path class="cls-2" d="M49,59H47.09a1,1,0,0,0,0,2H49A1,1,0,0,0,49,59Z"/></g></svg>